<svg id="svg" xmlns="http://www.w3.org/2000/svg" xmlns:xlink="http://www.w3.org/1999/xlink" width="400" height="400" viewBox="0, 0, 400,400"><g id="svgg"><path id="path0" d="M191.000 54.064 C 183.570 54.546,177.447 55.365,169.800 56.898 C 164.113 58.038,163.440 58.197,159.200 59.396 C 157.110 59.987,154.903 60.566,154.295 60.681 C 153.687 60.797,153.092 61.051,152.971 61.246 C 152.851 61.441,152.349 61.600,151.856 61.600 C 151.363 61.600,150.789 61.744,150.580 61.919 C 150.371 62.095,149.210 62.560,148.000 62.953 C 145.562 63.745,145.051 63.943,142.304 65.160 C 141.262 65.622,140.301 66.000,140.170 66.000 C 139.805 66.000,128.172 71.766,125.000 73.519 C 120.506 76.002,109.673 83.207,107.756 84.987 C 107.511 85.214,106.618 85.940,105.771 86.600 C 101.496 89.930,98.906 92.265,93.587 97.585 C 90.389 100.783,87.231 104.030,86.569 104.800 C 83.347 108.544,79.499 113.423,77.383 116.448 C 76.094 118.292,74.940 119.890,74.818 120.000 C 74.431 120.351,71.600 124.778,71.600 125.032 C 71.600 125.167,71.266 125.754,70.857 126.338 C 69.343 128.503,62.870 140.923,61.548 144.200 C 61.006 145.545,59.866 148.436,58.394 152.200 C 57.606 154.214,55.965 159.353,55.136 162.400 C 54.926 163.170,54.583 164.430,54.374 165.200 C 49.294 183.865,48.297 205.905,51.587 226.800 C 52.217 230.800,53.550 237.154,54.399 240.200 C 54.644 241.080,54.996 242.340,55.181 243.000 C 56.075 246.196,57.650 251.099,58.394 253.000 C 58.566 253.440,59.195 255.060,59.792 256.600 C 60.389 258.140,61.024 259.760,61.202 260.200 C 62.129 262.492,68.201 274.619,68.477 274.733 C 68.655 274.807,68.800 275.017,68.800 275.200 C 68.800 275.909,74.698 285.423,76.100 286.975 C 76.485 287.402,76.800 287.884,76.800 288.047 C 76.800 288.210,77.029 288.581,77.308 288.871 C 77.588 289.162,78.527 290.390,79.395 291.600 C 80.263 292.810,81.070 293.890,81.187 294.000 C 81.304 294.110,82.114 295.100,82.986 296.200 C 83.859 297.300,84.669 298.290,84.786 298.400 C 84.904 298.510,86.350 300.124,88.000 301.987 C 91.474 305.910,95.114 309.534,98.800 312.739 C 100.230 313.983,101.670 315.278,102.000 315.617 C 104.440 318.127,118.334 327.947,123.600 330.883 C 124.590 331.435,126.120 332.296,127.000 332.797 C 129.206 334.052,134.984 336.946,137.400 338.007 C 138.500 338.489,139.940 339.127,140.600 339.424 C 153.003 345.001,158.924 345.243,161.403 340.274 C 162.263 338.551,162.302 309.600,161.444 309.600 C 161.138 309.600,159.383 309.897,157.544 310.260 C 152.701 311.216,139.705 311.223,135.600 310.272 C 123.959 307.577,116.120 301.715,111.740 292.431 C 110.746 290.324,109.484 287.653,108.935 286.496 C 105.797 279.879,100.984 274.249,94.680 269.821 C 87.955 265.098,87.109 262.313,91.957 260.860 C 99.654 258.554,113.356 265.878,118.686 275.146 C 127.216 289.977,141.400 295.396,157.600 290.014 C 161.816 288.613,162.416 288.277,162.624 287.200 C 163.871 280.744,166.012 275.611,169.237 271.351 L 171.096 268.895 169.601 268.448 C 168.780 268.201,167.467 268.000,166.684 268.000 C 165.901 268.000,164.302 267.805,163.131 267.566 C 161.959 267.327,159.650 266.859,158.000 266.525 C 156.350 266.192,154.550 265.778,154.000 265.606 C 153.450 265.434,152.280 265.094,151.400 264.852 C 143.206 262.595,130.778 256.971,129.200 254.806 C 129.090 254.655,128.711 254.367,128.358 254.166 C 124.530 251.984,118.790 245.941,114.724 239.815 C 112.341 236.222,111.567 234.711,108.775 228.200 C 108.184 226.820,106.775 222.278,106.356 220.400 C 105.350 215.895,105.138 214.850,104.777 212.600 C 103.624 205.427,103.216 191.521,104.008 186.400 C 104.195 185.190,104.473 183.341,104.627 182.291 C 104.781 181.241,105.062 180.285,105.253 180.167 C 105.444 180.049,105.601 179.558,105.602 179.076 C 105.609 176.087,112.892 161.001,115.198 159.200 C 117.731 157.221,119.116 153.769,118.007 152.200 C 114.625 147.416,116.012 125.082,120.245 116.161 L 120.915 114.749 124.758 114.926 C 131.914 115.256,139.312 117.591,148.744 122.495 C 152.898 124.655,160.217 128.970,161.247 129.865 C 161.768 130.319,162.234 130.342,163.647 129.984 C 164.611 129.740,166.120 129.388,167.000 129.203 C 167.880 129.017,169.770 128.606,171.200 128.290 C 173.706 127.735,179.250 126.909,186.421 126.023 C 190.841 125.476,208.353 125.476,212.779 126.022 C 221.814 127.137,228.398 128.201,232.200 129.160 C 237.556 130.511,237.023 130.582,241.068 127.970 C 243.086 126.666,244.931 125.600,245.168 125.600 C 245.406 125.600,245.601 125.465,245.603 125.300 C 245.605 125.135,246.010 124.804,246.503 124.565 C 246.996 124.325,249.020 123.309,251.000 122.305 C 252.980 121.302,255.230 120.214,256.000 119.887 C 256.770 119.561,258.210 118.937,259.200 118.502 C 261.677 117.414,264.988 116.424,270.106 115.241 C 273.683 114.414,278.292 114.655,278.869 115.700 C 279.954 117.667,281.896 124.481,282.830 129.600 C 283.497 133.256,283.385 143.155,282.637 146.600 C 282.303 148.140,281.919 149.940,281.784 150.600 C 281.650 151.260,281.390 152.160,281.206 152.600 C 280.398 154.538,280.449 154.808,281.959 156.553 C 285.584 160.741,290.064 168.246,292.016 173.400 C 293.017 176.043,293.703 178.507,294.744 183.200 C 296.112 189.370,296.261 197.166,295.199 207.000 C 294.421 214.196,292.945 221.813,291.963 223.695 C 291.763 224.077,291.600 224.612,291.600 224.885 C 291.600 227.275,285.950 238.348,282.279 243.153 C 271.964 256.655,253.849 265.554,231.757 267.971 C 228.018 268.381,227.681 268.613,228.908 269.944 C 231.211 272.441,233.688 276.847,235.123 281.000 C 237.130 286.807,237.200 287.911,237.200 313.934 C 237.200 334.014,237.299 338.540,237.765 339.651 C 239.899 344.750,245.273 345.266,254.200 341.228 C 255.080 340.830,256.250 340.367,256.800 340.199 C 259.836 339.272,272.338 333.034,276.692 330.273 C 277.623 329.683,278.498 329.200,278.636 329.200 C 278.775 329.200,280.047 328.390,281.463 327.400 C 282.880 326.410,284.210 325.600,284.419 325.600 C 284.629 325.600,284.800 325.459,284.800 325.286 C 284.800 325.114,285.307 324.673,285.926 324.308 C 292.688 320.313,305.362 308.879,314.215 298.785 C 318.458 293.949,327.270 281.584,329.456 277.400 C 329.916 276.520,330.705 275.080,331.211 274.200 C 332.732 271.551,336.157 264.747,337.151 262.400 C 337.664 261.190,338.353 259.570,338.682 258.800 C 339.578 256.707,339.851 255.993,340.589 253.800 C 340.959 252.700,341.422 251.440,341.617 251.000 C 341.813 250.560,342.351 248.940,342.813 247.400 C 343.275 245.860,343.912 243.756,344.227 242.725 C 344.542 241.694,344.800 240.489,344.800 240.048 C 344.800 239.608,344.980 239.136,345.200 239.000 C 345.420 238.864,345.600 238.322,345.600 237.795 C 345.600 237.269,345.764 236.424,345.965 235.919 C 346.165 235.413,346.630 233.200,346.997 231.000 C 347.365 228.800,347.822 226.100,348.013 225.000 C 350.029 213.385,350.315 198.363,348.765 185.600 C 347.950 178.890,345.968 168.163,345.181 166.200 C 345.005 165.760,344.774 164.950,344.669 164.400 C 344.313 162.533,342.799 157.403,342.398 156.705 C 342.179 156.323,342.000 155.736,342.000 155.400 C 342.000 155.064,341.834 154.477,341.632 154.095 C 341.429 153.713,340.417 151.150,339.382 148.400 C 337.795 144.181,332.270 132.243,331.606 131.600 C 331.493 131.490,331.204 131.040,330.964 130.600 C 324.825 119.336,315.789 107.379,306.352 98.034 C 302.993 94.706,298.853 90.893,296.993 89.414 C 295.897 88.541,294.910 87.717,294.800 87.583 C 291.332 83.341,271.330 71.312,258.600 65.812 C 257.940 65.526,256.585 64.930,255.588 64.486 C 252.601 63.155,241.874 59.755,236.300 58.372 C 235.475 58.167,234.125 57.825,233.300 57.612 C 230.944 57.002,224.172 55.848,217.000 54.834 C 213.478 54.337,201.325 53.568,198.400 53.658 C 197.190 53.696,193.860 53.878,191.000 54.064 M102.762 265.846 C 102.132 266.605,103.489 268.000,104.857 268.000 C 106.081 268.000,106.260 266.802,105.162 265.958 C 103.971 265.042,103.449 265.018,102.762 265.846 M109.300 270.665 C 107.829 271.259,109.927 274.624,111.573 274.311 C 112.618 274.112,112.547 272.511,111.445 271.409 C 110.421 270.385,110.192 270.305,109.300 270.665 M114.880 278.480 C 113.631 279.729,115.461 282.800,117.455 282.800 C 118.284 282.800,118.400 282.612,118.400 281.270 C 118.400 278.927,116.187 277.173,114.880 278.480 M121.867 287.067 C 120.631 288.302,122.814 291.200,124.981 291.200 C 126.330 291.200,126.400 291.133,126.400 289.829 C 126.400 287.760,123.152 285.781,121.867 287.067 M132.065 293.551 C 130.235 294.711,133.625 297.765,135.871 296.980 C 137.378 296.453,137.630 294.746,136.334 293.839 C 135.358 293.155,132.946 292.993,132.065 293.551 M155.983 294.618 C 155.230 295.419,155.118 295.781,155.455 296.318 C 156.511 298.001,159.864 297.748,160.847 295.912 C 161.982 293.791,157.804 292.680,155.983 294.618 M144.179 296.023 C 142.775 297.574,144.926 299.166,147.717 298.642 C 149.328 298.340,149.907 297.320,149.208 296.015 C 148.583 294.846,145.239 294.852,144.179 296.023 " stroke="none" fill="#141414" fill-rule="evenodd"></path><path id="path1" d="M0.000 200.000 L 0.000 400.000 200.000 400.000 L 400.000 400.000 400.000 200.000 L 400.000 0.000 200.000 0.000 L 0.000 0.000 0.000 200.000 M216.200 53.975 C 217.960 54.201,220.390 54.488,221.600 54.612 C 222.810 54.737,224.160 54.997,224.600 55.190 C 225.040 55.383,226.210 55.641,227.200 55.762 C 229.844 56.085,235.445 57.288,239.200 58.339 C 239.970 58.554,241.590 59.003,242.800 59.335 C 245.448 60.063,248.703 61.111,249.800 61.589 C 250.240 61.781,251.500 62.241,252.600 62.611 C 255.183 63.481,255.826 63.731,258.000 64.708 C 258.990 65.153,260.520 65.828,261.400 66.208 C 263.941 67.306,270.848 70.715,272.600 71.736 C 273.480 72.249,275.100 73.168,276.200 73.778 C 288.591 80.651,305.616 94.954,315.200 106.544 C 316.630 108.273,317.992 109.893,318.226 110.144 C 318.461 110.395,319.944 112.400,321.522 114.600 C 323.101 116.800,324.562 118.805,324.770 119.055 C 325.374 119.782,328.800 125.187,328.800 125.413 C 328.800 125.525,329.235 126.288,329.768 127.109 C 331.795 130.233,336.091 138.529,338.152 143.300 C 338.508 144.125,339.056 145.385,339.370 146.100 C 339.683 146.815,340.323 148.480,340.791 149.800 C 341.259 151.120,341.813 152.513,342.021 152.895 C 342.230 153.277,342.400 153.864,342.400 154.200 C 342.400 154.536,342.570 155.123,342.779 155.505 C 343.138 156.165,343.697 157.969,344.790 162.000 C 345.058 162.990,345.440 164.113,345.639 164.495 C 345.838 164.877,346.000 165.696,346.000 166.315 C 346.000 166.934,346.148 167.611,346.330 167.820 C 346.685 168.230,347.485 172.316,348.831 180.600 C 349.899 187.169,350.185 191.850,350.177 202.600 C 350.173 209.031,349.956 215.983,349.692 218.200 C 348.650 226.925,347.465 233.785,346.369 237.428 C 346.166 238.104,346.000 238.961,346.000 239.334 C 346.000 239.706,345.838 240.323,345.639 240.705 C 345.440 241.087,345.058 242.210,344.790 243.200 C 343.697 247.231,343.138 249.035,342.779 249.695 C 342.570 250.077,342.400 250.664,342.400 251.000 C 342.400 251.336,342.230 251.923,342.021 252.305 C 341.813 252.687,341.259 254.080,340.791 255.400 C 340.323 256.720,339.683 258.385,339.370 259.100 C 339.056 259.815,338.508 261.075,338.152 261.900 C 337.117 264.296,332.880 272.850,331.862 274.600 C 331.350 275.480,330.432 277.100,329.821 278.200 C 322.839 290.785,308.177 307.843,295.783 317.800 C 293.592 319.560,291.740 321.135,291.667 321.300 C 291.593 321.465,291.370 321.600,291.170 321.600 C 290.970 321.600,290.381 321.970,289.861 322.421 C 289.342 322.873,287.045 324.490,284.758 326.014 C 282.471 327.537,280.411 328.923,280.180 329.092 C 279.948 329.261,279.408 329.593,278.980 329.829 C 278.551 330.066,277.570 330.606,276.800 331.029 C 276.030 331.453,275.310 331.893,275.200 332.007 C 274.335 332.903,259.942 339.930,256.400 341.185 C 255.630 341.457,254.550 341.867,254.000 342.094 C 249.148 344.098,247.941 344.400,244.772 344.400 C 236.431 344.400,236.223 343.687,236.543 316.200 C 236.691 303.519,236.635 293.553,236.405 291.400 C 235.709 284.882,235.502 283.600,235.149 283.600 C 234.957 283.600,234.800 283.148,234.800 282.595 C 234.800 282.042,234.635 281.277,234.434 280.895 C 233.617 279.342,232.000 275.553,232.000 275.189 C 232.000 274.975,231.820 274.800,231.600 274.800 C 231.380 274.800,231.200 274.612,231.200 274.383 C 231.200 273.906,230.874 273.477,228.454 270.771 C 226.230 268.284,226.425 267.757,229.669 267.485 C 231.061 267.368,234.000 266.970,236.200 266.599 C 238.400 266.229,240.876 265.834,241.703 265.721 C 242.529 265.608,243.305 265.355,243.426 265.158 C 243.548 264.961,244.179 264.800,244.829 264.800 C 245.479 264.800,246.323 264.635,246.705 264.433 C 247.087 264.232,248.480 263.767,249.800 263.401 C 253.611 262.345,254.801 261.913,258.511 260.241 C 259.782 259.669,261.072 259.200,261.378 259.200 C 261.683 259.200,261.993 259.065,262.067 258.900 C 262.140 258.735,262.984 258.194,263.943 257.697 C 266.477 256.385,268.172 255.430,268.400 255.187 C 268.510 255.070,269.590 254.262,270.800 253.391 C 275.879 249.739,284.752 240.061,284.791 238.133 C 284.796 237.877,284.942 237.607,285.116 237.533 C 285.290 237.460,286.254 235.690,287.257 233.600 C 289.857 228.185,290.400 226.874,290.400 226.010 C 290.400 225.590,290.580 225.136,290.800 225.000 C 291.020 224.864,291.200 224.324,291.200 223.800 C 291.200 223.276,291.360 222.748,291.556 222.627 C 291.751 222.506,292.013 221.821,292.137 221.104 C 292.261 220.387,292.645 218.360,292.992 216.600 C 293.338 214.840,293.829 212.050,294.082 210.400 C 294.591 207.091,294.716 186.665,294.241 184.400 C 292.790 177.484,292.123 175.265,290.241 171.089 C 289.669 169.818,289.200 168.603,289.200 168.389 C 289.200 168.175,289.064 168.000,288.898 168.000 C 288.731 168.000,288.342 167.415,288.032 166.700 C 287.458 165.375,284.897 161.163,284.445 160.800 C 284.308 160.690,283.666 159.880,283.019 159.000 C 282.372 158.120,281.737 157.310,281.607 157.200 C 279.807 155.667,279.463 152.804,280.907 151.360 C 281.068 151.199,281.200 150.477,281.200 149.757 C 281.200 149.037,281.353 148.353,281.540 148.237 C 282.817 147.448,282.817 127.752,281.540 126.963 C 281.353 126.847,281.200 126.305,281.200 125.758 C 281.200 124.858,279.762 119.825,278.732 117.123 C 278.123 115.524,272.259 115.101,268.400 116.379 C 267.850 116.561,266.230 117.020,264.800 117.399 C 262.134 118.106,261.619 118.282,259.200 119.318 C 258.430 119.647,256.810 120.331,255.600 120.837 C 254.390 121.343,252.860 122.049,252.200 122.407 C 251.540 122.765,250.010 123.583,248.800 124.226 C 247.590 124.868,246.510 125.485,246.400 125.597 C 246.290 125.709,245.840 125.993,245.400 126.229 C 242.849 127.599,241.745 128.270,241.093 128.847 C 239.032 130.673,237.784 130.997,234.914 130.451 C 233.421 130.167,231.660 129.847,231.000 129.740 C 230.340 129.633,229.440 129.389,229.000 129.198 C 228.560 129.006,227.480 128.746,226.600 128.620 C 213.956 126.801,207.302 126.209,199.600 126.216 C 189.831 126.226,177.675 127.551,168.800 129.574 C 163.102 130.872,161.949 130.986,160.858 130.354 C 160.276 130.018,159.350 129.485,158.800 129.171 C 158.250 128.857,157.710 128.497,157.600 128.371 C 157.490 128.245,157.130 128.018,156.800 127.867 C 156.470 127.717,155.660 127.257,155.000 126.846 C 150.653 124.139,144.760 121.179,139.700 119.159 C 139.205 118.962,138.395 118.634,137.900 118.431 C 137.405 118.227,135.920 117.767,134.600 117.409 C 133.280 117.050,131.660 116.600,131.000 116.410 C 129.224 115.897,123.438 115.484,122.110 115.776 C 121.067 116.005,120.847 116.366,119.827 119.515 C 119.206 121.432,118.609 123.270,118.501 123.600 C 116.439 129.884,116.392 147.125,118.425 150.895 C 118.631 151.277,118.800 151.941,118.800 152.371 C 118.800 152.801,118.980 153.264,119.200 153.400 C 119.982 153.884,119.579 155.176,118.100 156.923 C 115.578 159.903,115.261 160.320,113.706 162.699 C 112.879 163.965,112.112 165.090,112.001 165.200 C 111.330 165.867,108.257 172.791,107.386 175.600 C 107.010 176.810,106.545 178.113,106.352 178.495 C 106.158 178.877,106.000 179.696,106.000 180.315 C 106.000 180.934,105.837 181.611,105.639 181.820 C 104.303 183.226,104.305 211.562,105.642 212.980 C 105.839 213.189,106.000 214.036,106.000 214.861 C 106.000 215.687,106.159 216.776,106.354 217.281 C 106.549 217.787,107.014 219.550,107.389 221.200 C 107.763 222.850,108.234 224.605,108.435 225.100 C 108.636 225.595,108.966 226.405,109.169 226.900 C 109.372 227.395,109.857 228.700,110.248 229.800 C 110.639 230.900,111.394 232.610,111.928 233.600 C 113.899 237.261,115.354 239.806,115.587 240.000 C 115.719 240.110,116.526 241.190,117.381 242.400 C 119.086 244.814,126.064 252.000,126.703 252.000 C 126.922 252.000,127.349 252.301,127.651 252.669 C 129.213 254.572,135.691 258.164,143.800 261.623 C 145.797 262.475,150.742 264.000,151.506 264.000 C 151.972 264.000,152.464 264.180,152.600 264.400 C 152.736 264.620,153.366 264.800,154.000 264.800 C 154.634 264.800,155.252 264.961,155.374 265.158 C 155.495 265.355,156.271 265.608,157.097 265.721 C 157.924 265.834,160.400 266.234,162.600 266.611 C 164.800 266.988,167.500 267.371,168.600 267.462 C 173.040 267.832,173.218 268.117,170.695 270.809 C 168.862 272.766,168.474 273.355,166.619 277.000 C 165.110 279.964,164.652 281.311,163.736 285.482 C 162.936 289.124,163.036 289.023,158.800 290.445 C 152.569 292.537,139.532 293.508,138.570 291.952 C 138.451 291.758,137.935 291.600,137.425 291.600 C 136.551 291.600,134.658 290.957,132.400 289.893 C 129.459 288.507,124.689 284.612,122.200 281.564 C 120.617 279.625,119.200 277.648,119.200 277.377 C 119.200 276.155,113.133 269.184,110.106 266.927 C 109.277 266.310,108.510 265.700,108.400 265.573 C 108.232 265.378,104.499 263.538,100.862 261.858 C 97.626 260.362,89.600 261.661,89.600 263.679 C 89.600 264.460,93.175 268.400,93.883 268.400 C 94.131 268.400,94.393 268.535,94.467 268.700 C 94.540 268.865,95.590 269.653,96.800 270.452 C 98.973 271.886,104.000 276.617,104.000 277.228 C 104.000 277.401,104.257 277.800,104.571 278.113 C 105.680 279.222,108.709 284.241,110.177 287.400 C 113.605 294.779,114.674 296.596,117.173 299.290 C 120.818 303.220,123.931 305.329,129.600 307.709 C 135.967 310.382,146.082 311.096,156.593 309.615 C 159.657 309.184,162.262 308.928,162.382 309.048 C 162.808 309.473,163.009 336.964,162.599 338.631 C 160.897 345.547,154.718 346.296,142.740 341.041 C 141.936 340.688,141.160 340.400,141.014 340.400 C 140.574 340.400,129.561 335.189,129.200 334.810 C 129.090 334.695,128.190 334.199,127.200 333.708 C 124.045 332.144,114.528 326.304,112.667 324.790 C 112.410 324.581,110.580 323.212,108.600 321.749 C 96.865 313.074,84.952 300.889,76.584 289.000 C 75.500 287.460,74.472 286.020,74.301 285.800 C 73.414 284.664,72.000 282.317,72.000 281.982 C 72.000 281.772,71.820 281.600,71.600 281.600 C 71.380 281.600,71.200 281.447,71.200 281.260 C 71.200 281.073,70.210 279.278,69.000 277.270 C 67.790 275.263,66.314 272.581,65.720 271.310 C 65.126 270.040,64.532 268.910,64.399 268.800 C 64.267 268.690,63.844 267.880,63.460 267.000 C 63.076 266.120,62.590 265.087,62.381 264.705 C 62.171 264.323,62.000 263.738,62.000 263.405 C 62.000 263.072,61.820 262.800,61.600 262.800 C 61.380 262.800,61.200 262.476,61.200 262.080 C 61.200 261.684,61.049 261.189,60.864 260.980 C 60.679 260.771,60.292 259.970,60.004 259.200 C 59.716 258.430,59.258 257.260,58.987 256.600 C 58.716 255.940,58.275 254.770,58.007 254.000 C 57.739 253.230,57.372 252.240,57.191 251.800 C 56.494 250.099,55.600 247.024,55.600 246.329 C 55.600 245.928,55.420 245.600,55.200 245.600 C 54.980 245.600,54.800 245.096,54.800 244.480 C 54.800 243.864,54.648 243.189,54.461 242.980 C 54.275 242.771,53.810 241.160,53.427 239.400 C 53.045 237.640,52.567 235.678,52.366 235.040 C 52.165 234.402,52.000 233.313,52.000 232.620 C 52.000 231.927,51.838 231.189,51.641 230.980 C 51.444 230.771,51.188 229.880,51.074 229.000 C 50.960 228.120,50.677 226.050,50.445 224.400 C 49.373 216.756,49.206 213.819,49.206 202.600 C 49.206 191.431,49.384 188.288,50.431 181.000 C 50.652 179.460,50.926 177.480,51.039 176.600 C 51.153 175.720,51.401 174.640,51.592 174.200 C 51.783 173.760,52.037 172.680,52.157 171.800 C 52.278 170.920,52.666 169.030,53.021 167.600 C 53.375 166.170,53.760 164.413,53.877 163.696 C 53.993 162.979,54.249 162.294,54.444 162.173 C 54.640 162.052,54.800 161.601,54.800 161.171 C 54.800 160.741,54.965 160.077,55.167 159.695 C 55.368 159.313,55.832 157.920,56.197 156.600 C 56.847 154.250,57.338 152.899,58.047 151.505 C 58.241 151.123,58.400 150.448,58.400 150.005 C 58.400 149.562,58.557 149.200,58.750 149.200 C 58.942 149.200,59.205 148.673,59.334 148.029 C 59.570 146.852,60.161 145.438,62.649 140.105 C 63.392 138.513,64.000 137.028,64.000 136.805 C 64.000 136.582,64.180 136.400,64.400 136.400 C 64.620 136.400,64.800 136.055,64.800 135.633 C 64.800 135.212,64.943 134.807,65.119 134.733 C 65.294 134.660,65.832 133.790,66.314 132.800 C 67.332 130.711,68.855 128.031,70.232 125.909 C 70.765 125.088,71.200 124.233,71.200 124.009 C 71.200 123.784,71.380 123.600,71.600 123.600 C 71.820 123.600,72.000 123.412,72.000 123.182 C 72.000 122.826,78.153 113.773,78.784 113.200 C 78.905 113.090,79.540 112.280,80.196 111.400 C 81.914 109.091,82.280 108.646,85.588 104.839 C 88.973 100.944,97.292 92.641,100.000 90.456 C 100.990 89.657,102.070 88.723,102.400 88.381 C 102.730 88.039,103.716 87.228,104.592 86.579 C 106.493 85.171,107.263 84.556,108.937 83.106 C 109.632 82.505,110.410 82.010,110.667 82.006 C 110.923 82.003,111.193 81.862,111.267 81.693 C 111.433 81.309,115.412 78.400,115.770 78.400 C 115.915 78.400,116.392 78.066,116.830 77.658 C 117.268 77.250,118.339 76.575,119.209 76.158 C 120.079 75.741,120.793 75.265,120.795 75.100 C 120.798 74.935,121.055 74.800,121.367 74.800 C 121.678 74.800,121.993 74.665,122.067 74.500 C 122.238 74.114,124.362 72.932,129.600 70.306 C 131.910 69.148,133.860 68.065,133.933 67.900 C 134.007 67.735,134.288 67.600,134.558 67.600 C 134.829 67.600,135.759 67.264,136.625 66.853 C 137.491 66.442,138.875 65.812,139.700 65.453 C 140.525 65.094,141.785 64.544,142.500 64.230 C 143.215 63.917,144.880 63.277,146.200 62.809 C 147.520 62.341,148.913 61.787,149.295 61.579 C 149.677 61.370,150.316 61.200,150.715 61.200 C 151.114 61.200,151.611 61.044,151.820 60.854 C 152.029 60.663,153.460 60.198,155.000 59.819 C 156.540 59.441,158.113 58.967,158.495 58.766 C 158.877 58.565,159.631 58.400,160.171 58.400 C 160.711 58.400,161.252 58.240,161.373 58.044 C 161.494 57.849,162.179 57.590,162.896 57.469 C 163.613 57.349,165.550 56.965,167.200 56.616 C 168.850 56.267,171.010 55.882,172.000 55.762 C 172.990 55.641,174.160 55.383,174.600 55.190 C 175.414 54.833,176.048 54.751,183.772 54.009 C 186.177 53.778,188.246 53.488,188.369 53.365 C 188.732 53.001,212.710 53.527,216.200 53.975 M106.069 265.462 C 107.478 266.738,106.760 268.800,104.906 268.800 C 102.848 268.800,101.061 266.272,102.267 265.067 C 102.789 264.545,105.349 264.811,106.069 265.462 M112.300 271.037 C 113.814 272.731,113.172 275.150,111.200 275.185 C 110.169 275.204,108.412 273.456,108.164 272.165 C 107.667 269.582,110.347 268.851,112.300 271.037 M118.038 278.300 C 120.259 281.066,119.814 283.600,117.107 283.600 C 115.133 283.600,112.946 279.187,114.267 277.867 C 114.831 277.303,117.482 277.607,118.038 278.300 M124.520 286.259 C 128.487 288.302,127.832 293.740,123.847 291.849 C 120.735 290.372,119.884 287.391,122.200 286.078 C 123.212 285.504,123.025 285.490,124.520 286.259 M135.841 292.816 C 138.291 293.747,138.808 296.362,136.751 297.425 C 134.362 298.661,131.179 297.154,131.111 294.755 C 131.051 292.655,133.153 291.794,135.841 292.816 M160.711 293.423 C 163.055 295.065,161.193 297.964,157.780 297.987 C 155.440 298.002,154.800 297.529,154.800 295.782 C 154.800 293.306,158.459 291.845,160.711 293.423 M148.281 294.495 C 150.658 295.547,151.085 297.458,149.238 298.773 C 147.787 299.806,145.340 299.844,144.050 298.852 C 141.271 296.715,144.886 292.993,148.281 294.495 " stroke="none" fill="#fbfbfb" fill-rule="evenodd"></path><path id="path2" d="M303.400 94.800 C 304.259 95.680,305.052 96.400,305.162 96.400 C 305.272 96.400,304.659 95.680,303.800 94.800 C 302.941 93.920,302.148 93.200,302.038 93.200 C 301.928 93.200,302.541 93.920,303.400 94.800 M93.188 97.100 L 90.600 99.800 93.300 97.212 C 94.785 95.788,96.000 94.573,96.000 94.512 C 96.000 94.217,95.593 94.592,93.188 97.100 M197.500 125.895 C 198.655 125.976,200.545 125.976,201.700 125.895 C 202.855 125.814,201.910 125.748,199.600 125.748 C 197.290 125.748,196.345 125.814,197.500 125.895 M103.746 195.400 C 103.747 197.600,103.814 198.449,103.895 197.287 C 103.976 196.124,103.976 194.324,103.893 193.287 C 103.811 192.249,103.745 193.200,103.746 195.400 M295.301 199.400 C 295.305 200.280,295.387 200.593,295.483 200.095 C 295.579 199.598,295.575 198.878,295.475 198.495 C 295.375 198.113,295.296 198.520,295.301 199.400 M294.893 204.800 C 294.893 205.570,294.975 205.885,295.076 205.500 C 295.176 205.115,295.176 204.485,295.076 204.100 C 294.975 203.715,294.893 204.030,294.893 204.800 M49.293 211.200 C 49.293 211.970,49.375 212.285,49.476 211.900 C 49.576 211.515,49.576 210.885,49.476 210.500 C 49.375 210.115,49.293 210.430,49.293 211.200 M277.586 247.900 L 275.400 250.200 277.700 248.014 C 279.837 245.982,280.183 245.600,279.886 245.600 C 279.824 245.600,278.789 246.635,277.586 247.900 M120.800 247.325 C 120.800 247.394,121.385 247.979,122.100 248.625 L 123.400 249.800 122.225 248.500 C 121.130 247.288,120.800 247.016,120.800 247.325 M102.349 265.500 C 101.871 266.109,101.878 266.140,102.400 265.738 C 102.730 265.484,103.450 265.194,104.000 265.093 L 105.000 264.909 103.949 264.854 C 103.370 264.824,102.652 265.114,102.349 265.500 M227.374 268.442 C 227.224 268.684,227.613 269.359,228.239 269.942 L 229.377 271.000 228.447 269.930 C 227.935 269.341,227.636 268.666,227.782 268.430 C 227.928 268.193,227.957 268.000,227.847 268.000 C 227.737 268.000,227.524 268.199,227.374 268.442 M170.834 269.753 L 169.869 271.000 171.013 269.912 C 171.643 269.314,172.077 268.753,171.979 268.665 C 171.880 268.577,171.365 269.067,170.834 269.753 M117.600 300.600 C 118.346 301.370,119.047 302.000,119.157 302.000 C 119.267 302.000,118.746 301.370,118.000 300.600 C 117.254 299.830,116.553 299.200,116.443 299.200 C 116.333 299.200,116.854 299.830,117.600 300.600 M236.973 321.200 C 236.973 326.590,237.030 328.795,237.099 326.100 C 237.168 323.405,237.168 318.995,237.099 316.300 C 237.030 313.605,236.973 315.810,236.973 321.200 " stroke="none" fill="#9f9e9e" fill-rule="evenodd"></path><path id="path3" d="M189.000 54.007 C 187.900 54.159,188.980 54.198,191.400 54.092 C 193.820 53.987,195.875 53.833,195.967 53.750 C 196.227 53.515,191.222 53.700,189.000 54.007 M204.700 53.889 C 205.415 53.978,206.585 53.978,207.300 53.889 C 208.015 53.801,207.430 53.728,206.000 53.728 C 204.570 53.728,203.985 53.801,204.700 53.889 M209.705 54.287 C 210.314 54.379,211.214 54.377,211.705 54.282 C 212.197 54.187,211.700 54.111,210.600 54.114 C 209.500 54.117,209.097 54.195,209.705 54.287 M216.800 54.787 C 217.791 55.117,220.687 55.335,220.367 55.054 C 220.275 54.974,219.210 54.806,218.000 54.681 C 216.580 54.534,216.154 54.571,216.800 54.787 M179.700 55.076 C 180.085 55.176,180.715 55.176,181.100 55.076 C 181.485 54.975,181.170 54.893,180.400 54.893 C 179.630 54.893,179.315 54.975,179.700 55.076 M223.700 55.876 C 224.085 55.976,224.715 55.976,225.100 55.876 C 225.485 55.775,225.170 55.693,224.400 55.693 C 223.630 55.693,223.315 55.775,223.700 55.876 M168.600 56.819 C 168.042 57.071,168.285 57.107,169.400 56.938 C 170.280 56.804,171.075 56.628,171.167 56.547 C 171.510 56.244,169.368 56.471,168.600 56.819 M165.000 57.600 C 164.496 57.817,164.422 57.944,164.800 57.944 C 165.130 57.944,165.760 57.789,166.200 57.600 C 166.704 57.383,166.778 57.256,166.400 57.256 C 166.070 57.256,165.440 57.411,165.000 57.600 M236.400 58.382 C 236.730 58.605,237.345 58.791,237.767 58.794 C 238.790 58.802,238.471 58.573,237.000 58.244 C 236.124 58.048,235.962 58.085,236.400 58.382 M240.033 59.344 C 240.125 59.423,240.740 59.608,241.400 59.756 C 242.276 59.952,242.438 59.915,242.000 59.618 C 241.460 59.253,239.632 58.998,240.033 59.344 M147.000 63.014 C 146.000 63.496,145.966 63.551,146.800 63.348 C 147.933 63.071,149.207 62.421,148.600 62.430 C 148.380 62.433,147.660 62.696,147.000 63.014 M278.200 75.807 C 278.640 76.166,279.360 76.635,279.800 76.851 L 280.600 77.244 279.800 76.593 C 279.360 76.234,278.640 75.765,278.200 75.549 L 277.400 75.156 278.200 75.807 M118.900 76.846 C 117.537 77.719,117.095 78.306,118.300 77.643 C 119.218 77.139,120.656 76.027,120.400 76.019 C 120.290 76.016,119.615 76.388,118.900 76.846 M283.800 79.407 C 284.240 79.766,284.960 80.235,285.400 80.451 L 286.200 80.844 285.400 80.193 C 284.960 79.834,284.240 79.365,283.800 79.149 L 283.000 78.756 283.800 79.407 M286.544 81.109 C 286.860 81.621,289.200 83.353,289.200 83.075 C 289.200 82.976,288.539 82.391,287.732 81.775 C 286.924 81.159,286.389 80.859,286.544 81.109 M296.069 88.676 C 298.313 90.489,298.717 90.675,297.018 89.112 C 296.128 88.294,295.251 87.619,295.069 87.612 C 294.887 87.605,295.337 88.084,296.069 88.676 M99.578 91.500 L 98.200 93.000 99.700 91.622 C 101.096 90.338,101.384 90.000,101.078 90.000 C 101.012 90.000,100.337 90.675,99.578 91.500 M300.043 92.100 C 300.140 92.155,301.385 93.280,302.810 94.600 L 305.400 97.000 303.013 94.500 C 301.699 93.125,300.454 92.000,300.246 92.000 C 300.037 92.000,299.946 92.045,300.043 92.100 M92.613 97.987 C 90.208 100.399,88.321 102.424,88.420 102.487 C 88.519 102.549,90.571 100.575,92.981 98.100 C 95.390 95.625,97.277 93.600,97.174 93.600 C 97.071 93.600,95.018 95.574,92.613 97.987 M309.400 101.200 C 310.483 102.300,311.460 103.200,311.570 103.200 C 311.680 103.200,310.883 102.300,309.800 101.200 C 308.717 100.100,307.740 99.200,307.630 99.200 C 307.520 99.200,308.317 100.100,309.400 101.200 M86.604 104.396 C 85.974 105.054,85.535 105.656,85.629 105.734 C 85.723 105.812,86.313 105.274,86.939 104.538 C 88.354 102.877,88.145 102.788,86.604 104.396 M121.200 115.024 C 122.587 115.327,129.157 115.420,128.699 115.129 C 128.425 114.955,126.490 114.830,124.400 114.853 C 122.310 114.875,120.870 114.952,121.200 115.024 M270.712 115.128 C 270.334 115.278,271.981 115.400,274.372 115.400 C 276.764 115.400,278.637 115.265,278.536 115.100 C 278.310 114.730,271.660 114.754,270.712 115.128 M266.800 116.018 C 266.362 116.315,266.524 116.352,267.400 116.156 C 268.871 115.827,269.190 115.598,268.167 115.606 C 267.745 115.609,267.130 115.795,266.800 116.018 M75.584 118.423 C 75.105 119.096,74.779 119.713,74.861 119.794 C 74.943 119.876,75.414 119.326,75.908 118.571 C 77.023 116.871,76.771 116.756,75.584 118.423 M261.000 117.814 C 260.000 118.296,259.966 118.351,260.800 118.148 C 261.933 117.871,263.207 117.221,262.600 117.230 C 262.380 117.233,261.660 117.496,261.000 117.814 M326.749 123.400 C 326.965 123.840,327.434 124.560,327.793 125.000 L 328.444 125.800 328.051 125.000 C 327.835 124.560,327.366 123.840,327.007 123.400 L 326.356 122.600 326.749 123.400 M187.200 126.005 C 186.420 126.172,187.394 126.212,189.400 126.097 C 191.380 125.982,193.075 125.824,193.167 125.744 C 193.465 125.486,188.640 125.697,187.200 126.005 M206.033 125.744 C 206.125 125.824,207.820 125.985,209.800 126.103 C 212.248 126.249,212.888 126.210,211.800 125.982 C 210.220 125.650,205.710 125.465,206.033 125.744 M179.800 126.800 C 178.137 127.223,179.774 127.242,181.800 126.823 C 183.145 126.545,183.209 126.492,182.200 126.493 C 181.540 126.494,180.460 126.632,179.800 126.800 M242.100 127.246 C 240.737 128.119,240.295 128.706,241.500 128.043 C 242.418 127.539,243.856 126.427,243.600 126.419 C 243.490 126.416,242.815 126.788,242.100 127.246 M116.600 128.800 C 116.446 129.710,116.404 130.538,116.507 130.640 C 116.610 130.743,116.813 130.077,116.960 129.160 C 117.107 128.243,117.148 127.415,117.053 127.320 C 116.958 127.224,116.754 127.890,116.600 128.800 M224.033 127.744 C 224.125 127.824,225.010 127.996,226.000 128.127 C 227.202 128.286,227.534 128.247,227.000 128.010 C 226.236 127.672,223.686 127.443,224.033 127.744 M158.400 128.124 C 158.400 128.217,159.165 128.798,160.100 129.415 C 161.035 130.032,161.589 130.280,161.331 129.968 C 160.834 129.367,158.400 127.836,158.400 128.124 M168.800 128.818 C 168.362 129.115,168.524 129.152,169.400 128.956 C 170.871 128.627,171.190 128.398,170.167 128.406 C 169.745 128.409,169.130 128.595,168.800 128.818 M228.833 128.544 C 228.925 128.623,229.540 128.808,230.200 128.956 C 231.076 129.152,231.238 129.115,230.800 128.818 C 230.260 128.453,228.432 128.198,228.833 128.544 M282.924 133.000 C 282.926 134.320,283.001 134.812,283.090 134.093 C 283.179 133.374,283.177 132.294,283.086 131.693 C 282.995 131.092,282.922 131.680,282.924 133.000 M66.800 132.800 C 66.351 133.680,66.074 134.400,66.184 134.400 C 66.294 134.400,66.751 133.680,67.200 132.800 C 67.649 131.920,67.926 131.200,67.816 131.200 C 67.706 131.200,67.249 131.920,66.800 132.800 M116.150 137.800 C 116.151 140.220,116.216 141.158,116.296 139.885 C 116.376 138.612,116.375 136.632,116.294 135.485 C 116.214 134.338,116.149 135.380,116.150 137.800 M333.600 135.600 C 334.049 136.480,334.506 137.200,334.616 137.200 C 334.726 137.200,334.449 136.480,334.000 135.600 C 333.551 134.720,333.094 134.000,332.984 134.000 C 332.874 134.000,333.151 134.720,333.600 135.600 M283.309 137.600 C 283.309 138.590,283.387 138.995,283.482 138.500 C 283.578 138.005,283.578 137.195,283.482 136.700 C 283.387 136.205,283.309 136.610,283.309 137.600 M282.920 142.800 C 282.920 144.010,282.995 144.505,283.087 143.900 C 283.178 143.295,283.178 142.305,283.087 141.700 C 282.995 141.095,282.920 141.590,282.920 142.800 M340.229 150.400 C 340.376 150.950,340.664 151.670,340.867 152.000 C 341.125 152.417,341.157 152.295,340.971 151.600 C 340.824 151.050,340.536 150.330,340.333 150.000 C 340.075 149.583,340.043 149.705,340.229 150.400 M117.999 155.700 C 117.410 156.504,117.313 156.784,117.745 156.433 C 118.401 155.900,119.393 154.400,119.089 154.400 C 119.013 154.400,118.522 154.985,117.999 155.700 M282.374 157.500 C 283.337 158.655,284.202 159.600,284.296 159.600 C 284.568 159.600,282.104 156.582,281.326 155.962 C 280.939 155.653,281.410 156.345,282.374 157.500 M114.264 160.400 C 113.874 161.060,113.621 161.600,113.702 161.600 C 113.783 161.600,114.249 161.060,114.737 160.400 C 115.225 159.740,115.477 159.200,115.298 159.200 C 115.119 159.200,114.654 159.740,114.264 160.400 M344.828 165.076 C 344.813 165.558,344.980 166.064,345.200 166.200 C 345.673 166.492,345.673 166.101,345.200 165.000 C 344.869 164.229,344.855 164.231,344.828 165.076 M53.829 165.829 C 53.681 166.415,53.638 166.972,53.732 167.066 C 53.827 167.160,54.024 166.758,54.171 166.171 C 54.319 165.585,54.362 165.028,54.268 164.934 C 54.173 164.840,53.976 165.242,53.829 165.829 M345.656 168.000 C 345.656 168.330,345.811 168.960,346.000 169.400 C 346.217 169.904,346.344 169.978,346.344 169.600 C 346.344 169.270,346.189 168.640,346.000 168.200 C 345.783 167.696,345.656 167.622,345.656 168.000 M346.468 171.600 C 346.488 172.639,347.118 174.346,347.132 173.400 C 347.138 172.960,346.989 172.240,346.800 171.800 C 346.589 171.310,346.461 171.232,346.468 171.600 M347.693 178.000 C 347.693 178.770,347.775 179.085,347.876 178.700 C 347.976 178.315,347.976 177.685,347.876 177.300 C 347.775 176.915,347.693 177.230,347.693 178.000 M51.249 178.600 C 51.216 179.040,51.096 179.850,50.983 180.400 L 50.777 181.400 51.206 180.419 C 51.442 179.879,51.561 179.069,51.472 178.619 C 51.313 177.821,51.307 177.821,51.249 178.600 M348.493 183.600 C 348.493 184.370,348.575 184.685,348.676 184.300 C 348.776 183.915,348.776 183.285,348.676 182.900 C 348.575 182.515,348.493 182.830,348.493 183.600 M294.662 184.200 C 294.796 185.080,294.972 185.875,295.053 185.967 C 295.356 186.310,295.129 184.168,294.781 183.400 C 294.529 182.842,294.493 183.085,294.662 184.200 M104.101 185.800 C 104.105 186.680,104.187 186.993,104.283 186.495 C 104.379 185.998,104.375 185.278,104.275 184.895 C 104.175 184.513,104.096 184.920,104.101 185.800 M50.101 187.400 C 50.105 188.280,50.187 188.593,50.283 188.095 C 50.379 187.598,50.375 186.878,50.275 186.495 C 50.175 186.113,50.096 186.520,50.101 187.400 M103.701 189.400 C 103.705 190.280,103.787 190.593,103.883 190.095 C 103.979 189.598,103.975 188.878,103.875 188.495 C 103.775 188.113,103.696 188.520,103.701 189.400 M349.314 191.800 C 349.317 192.900,349.395 193.303,349.487 192.695 C 349.579 192.086,349.577 191.186,349.482 190.695 C 349.387 190.203,349.311 190.700,349.314 191.800 M295.758 195.800 C 295.758 198.880,295.821 200.087,295.897 198.482 C 295.973 196.878,295.973 194.358,295.896 192.882 C 295.819 191.407,295.757 192.720,295.758 195.800 M49.714 193.000 C 49.717 194.100,49.795 194.503,49.887 193.895 C 49.979 193.286,49.977 192.386,49.882 191.895 C 49.787 191.403,49.711 191.900,49.714 193.000 M349.728 196.400 C 349.728 197.830,349.801 198.415,349.889 197.700 C 349.978 196.985,349.978 195.815,349.889 195.100 C 349.801 194.385,349.728 194.970,349.728 196.400 M49.360 202.600 C 49.361 205.900,49.422 207.197,49.498 205.482 C 49.573 203.767,49.572 201.067,49.497 199.482 C 49.421 197.897,49.359 199.300,49.360 202.600 M103.714 202.600 C 103.717 203.700,103.795 204.103,103.887 203.495 C 103.979 202.886,103.977 201.986,103.882 201.495 C 103.787 201.003,103.711 201.500,103.714 202.600 M295.301 203.000 C 295.305 203.880,295.387 204.193,295.483 203.695 C 295.579 203.198,295.575 202.478,295.475 202.095 C 295.375 201.713,295.296 202.120,295.301 203.000 M349.473 209.952 C 349.307 212.676,349.250 214.983,349.345 215.079 C 349.592 215.325,350.114 207.207,349.929 206.000 C 349.844 205.450,349.639 207.229,349.473 209.952 M104.114 207.400 C 104.117 208.500,104.195 208.903,104.287 208.295 C 104.379 207.686,104.377 206.786,104.282 206.295 C 104.187 205.803,104.111 206.300,104.114 207.400 M294.862 208.000 C 294.822 208.770,294.696 209.850,294.583 210.400 L 294.377 211.400 294.808 210.414 C 295.044 209.871,295.170 208.791,295.086 208.014 L 294.934 206.600 294.862 208.000 M49.709 212.000 C 49.709 212.990,49.787 213.395,49.882 212.900 C 49.978 212.405,49.978 211.595,49.882 211.100 C 49.787 210.605,49.709 211.010,49.709 212.000 M104.846 213.600 C 104.827 214.150,104.987 214.870,105.200 215.200 C 105.694 215.964,105.694 215.142,105.200 213.600 L 104.880 212.600 104.846 213.600 M293.850 214.450 C 293.709 215.153,293.669 215.802,293.759 215.892 C 293.850 215.983,294.048 215.491,294.200 214.800 C 294.352 214.109,294.393 213.459,294.291 213.358 C 294.189 213.256,293.991 213.747,293.850 214.450 M50.101 217.800 C 50.105 218.680,50.187 218.993,50.283 218.495 C 50.379 217.998,50.375 217.278,50.275 216.895 C 50.175 216.513,50.096 216.920,50.101 217.800 M105.606 217.433 C 105.609 217.855,105.795 218.470,106.018 218.800 C 106.315 219.238,106.352 219.076,106.156 218.200 C 105.827 216.729,105.598 216.410,105.606 217.433 M293.000 218.800 C 292.848 219.491,292.807 220.141,292.909 220.242 C 293.011 220.344,293.209 219.853,293.350 219.150 C 293.491 218.447,293.531 217.798,293.441 217.708 C 293.350 217.617,293.152 218.109,293.000 218.800 M106.456 220.800 C 106.456 221.130,106.611 221.760,106.800 222.200 C 107.017 222.704,107.144 222.778,107.144 222.400 C 107.144 222.070,106.989 221.440,106.800 221.000 C 106.583 220.496,106.456 220.422,106.456 220.800 M348.493 221.600 C 348.493 222.370,348.575 222.685,348.676 222.300 C 348.776 221.915,348.776 221.285,348.676 220.900 C 348.575 220.515,348.493 220.830,348.493 221.600 M50.887 224.200 C 50.891 224.640,51.032 225.540,51.200 226.200 C 51.474 227.278,51.506 227.298,51.513 226.400 C 51.517 225.850,51.376 224.950,51.200 224.400 C 50.949 223.616,50.881 223.573,50.887 224.200 M347.693 227.200 C 347.693 227.970,347.775 228.285,347.876 227.900 C 347.976 227.515,347.976 226.885,347.876 226.500 C 347.775 226.115,347.693 226.430,347.693 227.200 M346.650 232.450 C 346.509 233.153,346.469 233.802,346.559 233.892 C 346.650 233.983,346.848 233.491,347.000 232.800 C 347.152 232.109,347.193 231.459,347.091 231.358 C 346.989 231.256,346.791 231.747,346.650 232.450 M283.648 240.900 C 282.561 242.489,282.377 242.890,283.141 242.000 C 284.326 240.621,285.782 238.400,285.501 238.400 C 285.422 238.400,284.588 239.525,283.648 240.900 M345.067 239.067 C 344.920 239.213,344.811 239.708,344.825 240.167 C 344.849 240.933,344.882 240.923,345.234 240.042 C 345.626 239.063,345.544 238.589,345.067 239.067 M344.046 242.867 C 344.021 243.234,343.896 243.864,343.770 244.267 C 343.552 244.962,343.563 244.963,343.997 244.287 C 344.248 243.896,344.373 243.266,344.273 242.887 C 344.111 242.268,344.088 242.266,344.046 242.867 M278.227 247.513 C 276.171 249.773,275.795 250.296,277.159 249.000 C 279.044 247.209,281.877 243.980,281.534 244.013 C 281.460 244.020,279.972 245.595,278.227 247.513 M119.186 245.786 C 120.275 247.297,122.992 250.060,124.200 250.884 C 124.860 251.334,124.610 250.998,123.646 250.137 C 122.681 249.276,121.151 247.762,120.246 246.772 C 119.340 245.783,118.864 245.339,119.186 245.786 M269.421 254.836 C 266.613 256.845,265.701 257.599,266.800 257.002 C 267.863 256.425,272.400 253.166,272.400 252.980 C 272.400 252.705,272.385 252.714,269.421 254.836 M129.600 255.220 C 130.987 256.161,131.778 256.435,130.800 255.636 C 130.250 255.186,129.620 254.817,129.400 254.815 C 129.180 254.813,129.270 254.996,129.600 255.220 M136.400 258.997 C 136.400 259.268,139.649 260.884,139.830 260.703 C 139.914 260.619,139.176 260.159,138.191 259.681 C 137.206 259.202,136.400 258.894,136.400 258.997 M93.891 260.689 C 94.601 260.777,95.861 260.779,96.691 260.692 C 97.521 260.605,96.940 260.533,95.400 260.531 C 93.860 260.529,93.181 260.600,93.891 260.689 M62.028 262.600 C 62.028 262.820,62.286 263.450,62.600 264.000 C 62.914 264.550,63.172 264.820,63.172 264.600 C 63.172 264.380,62.914 263.750,62.600 263.200 C 62.286 262.650,62.028 262.380,62.028 262.600 M105.100 265.837 C 105.595 266.200,106.000 266.751,106.000 267.062 C 106.000 267.372,105.595 267.789,105.100 267.988 C 104.491 268.232,104.410 268.357,104.851 268.375 C 106.568 268.442,106.769 266.396,105.123 265.615 L 104.200 265.177 105.100 265.837 M154.000 265.582 C 154.330 265.805,154.945 265.991,155.367 265.994 C 156.390 266.002,156.071 265.773,154.600 265.444 C 153.724 265.248,153.562 265.285,154.000 265.582 M159.000 266.800 C 160.692 267.231,162.144 267.231,160.800 266.800 C 160.250 266.624,159.350 266.483,158.800 266.487 C 157.902 266.494,157.922 266.526,159.000 266.800 M110.843 266.900 C 110.940 266.955,112.185 268.080,113.610 269.400 L 116.200 271.800 113.813 269.300 C 112.499 267.925,111.254 266.800,111.046 266.800 C 110.837 266.800,110.746 266.845,110.843 266.900 M163.600 267.600 C 164.150 267.776,165.050 267.917,165.600 267.913 C 166.498 267.906,166.478 267.874,165.400 267.600 C 163.708 267.169,162.256 267.169,163.600 267.600 M233.000 267.600 C 231.922 267.874,231.902 267.906,232.800 267.913 C 233.350 267.917,234.250 267.776,234.800 267.600 C 236.144 267.169,234.692 267.169,233.000 267.600 M169.883 268.461 L 171.167 268.906 169.733 270.753 L 168.300 272.600 169.923 270.800 C 171.668 268.866,171.654 268.577,169.800 268.236 L 168.600 268.015 169.883 268.461 M228.000 268.394 C 227.502 268.712,227.635 268.998,228.791 270.088 L 230.182 271.400 229.027 270.111 L 227.871 268.822 228.836 268.436 C 229.366 268.224,229.530 268.042,229.200 268.031 C 228.870 268.021,228.330 268.184,228.000 268.394 M111.823 271.701 C 112.191 272.306,112.399 273.161,112.284 273.601 C 112.169 274.041,112.238 274.300,112.437 274.177 C 113.058 273.793,112.837 272.531,111.976 271.544 L 111.153 270.600 111.823 271.701 M116.400 272.149 C 116.400 272.316,116.885 273.116,117.478 273.927 C 118.889 275.856,119.398 276.392,118.878 275.400 C 118.272 274.246,116.400 271.790,116.400 272.149 M99.233 273.300 C 99.325 273.355,99.940 273.850,100.600 274.400 L 101.800 275.400 100.830 274.300 C 100.297 273.695,99.682 273.200,99.464 273.200 C 99.245 273.200,99.142 273.245,99.233 273.300 M118.493 281.200 C 118.493 281.970,118.575 282.285,118.676 281.900 C 118.776 281.515,118.776 280.885,118.676 280.500 C 118.575 280.115,118.493 280.430,118.493 281.200 M122.696 281.400 C 123.374 282.280,124.616 283.630,125.455 284.400 C 126.453 285.316,126.235 284.970,124.823 283.400 C 121.833 280.074,121.254 279.530,122.696 281.400 M163.029 284.629 C 162.881 285.215,162.838 285.772,162.932 285.866 C 163.027 285.960,163.224 285.558,163.371 284.971 C 163.519 284.385,163.562 283.828,163.468 283.734 C 163.373 283.640,163.176 284.042,163.029 284.629 M75.615 286.600 C 75.617 286.820,75.986 287.450,76.436 288.000 C 76.979 288.664,77.115 288.731,76.840 288.200 C 76.166 286.895,75.612 286.172,75.615 286.600 M121.862 286.700 C 121.760 286.865,122.362 287.000,123.200 287.000 C 124.038 287.000,124.640 286.865,124.538 286.700 C 124.436 286.535,123.834 286.400,123.200 286.400 C 122.566 286.400,121.964 286.535,121.862 286.700 M322.800 287.600 C 322.330 288.260,322.036 288.800,322.146 288.800 C 322.256 288.800,322.730 288.260,323.200 287.600 C 323.670 286.940,323.964 286.400,323.854 286.400 C 323.744 286.400,323.270 286.940,322.800 287.600 M236.893 290.000 C 236.893 290.770,236.975 291.085,237.076 290.700 C 237.176 290.315,237.176 289.685,237.076 289.300 C 236.975 288.915,236.893 289.230,236.893 290.000 M123.552 291.312 C 123.745 291.505,124.419 291.598,125.051 291.519 C 126.109 291.387,126.081 291.359,124.700 291.168 C 123.840 291.049,123.350 291.110,123.552 291.312 M138.800 291.600 C 140.168 292.038,141.219 292.038,140.200 291.600 C 139.760 291.411,139.040 291.262,138.600 291.268 C 137.957 291.277,137.996 291.343,138.800 291.600 M151.000 291.619 C 150.442 291.871,150.685 291.907,151.800 291.738 C 152.680 291.604,153.475 291.428,153.567 291.347 C 153.910 291.044,151.768 291.271,151.000 291.619 M144.300 292.282 C 144.795 292.378,145.605 292.378,146.100 292.282 C 146.595 292.187,146.190 292.109,145.200 292.109 C 144.210 292.109,143.805 292.187,144.300 292.282 M132.262 293.100 C 132.160 293.265,132.942 293.400,134.000 293.400 C 135.058 293.400,135.840 293.265,135.738 293.100 C 135.636 292.935,134.854 292.800,134.000 292.800 C 133.146 292.800,132.364 292.935,132.262 293.100 M137.246 295.480 C 137.221 295.964,136.885 296.544,136.500 296.768 C 136.115 296.992,136.003 297.181,136.251 297.188 C 136.963 297.207,137.684 296.109,137.479 295.319 C 137.330 294.743,137.284 294.774,137.246 295.480 M145.900 295.082 C 146.395 295.178,147.205 295.178,147.700 295.082 C 148.195 294.987,147.790 294.909,146.800 294.909 C 145.810 294.909,145.405 294.987,145.900 295.082 M160.800 295.921 C 160.800 296.170,160.305 296.643,159.700 296.971 C 159.095 297.299,158.805 297.575,159.056 297.584 C 159.753 297.608,161.440 296.109,161.100 295.768 C 160.935 295.602,160.800 295.671,160.800 295.921 M113.964 296.733 C 114.180 297.136,114.671 297.721,115.055 298.033 C 115.487 298.384,115.390 298.104,114.801 297.300 C 113.751 295.865,113.357 295.598,113.964 296.733 M144.344 298.376 C 145.328 299.234,147.371 299.459,148.379 298.821 C 148.756 298.583,148.376 298.533,147.288 298.679 C 146.105 298.838,145.293 298.706,144.508 298.228 L 143.400 297.553 144.344 298.376 M84.800 298.650 C 84.800 298.789,85.430 299.600,86.200 300.453 C 86.970 301.305,87.600 301.889,87.600 301.750 C 87.600 301.611,86.970 300.800,86.200 299.947 C 85.430 299.095,84.800 298.511,84.800 298.650 M117.400 300.800 C 118.483 301.900,119.460 302.800,119.570 302.800 C 119.680 302.800,118.883 301.900,117.800 300.800 C 116.717 299.700,115.740 298.800,115.630 298.800 C 115.520 298.800,116.317 299.700,117.400 300.800 M310.800 302.600 C 309.828 303.590,309.123 304.400,309.233 304.400 C 309.343 304.400,310.228 303.590,311.200 302.600 C 312.172 301.610,312.877 300.800,312.767 300.800 C 312.657 300.800,311.772 301.610,310.800 302.600 M89.200 303.800 C 89.946 304.570,90.647 305.200,90.757 305.200 C 90.867 305.200,90.346 304.570,89.600 303.800 C 88.854 303.030,88.153 302.400,88.043 302.400 C 87.933 302.400,88.454 303.030,89.200 303.800 M120.198 303.196 C 120.515 303.709,124.018 306.119,124.183 305.939 C 124.253 305.862,123.331 305.126,122.133 304.302 C 120.935 303.478,120.064 302.980,120.198 303.196 M96.000 310.600 C 96.746 311.370,97.447 312.000,97.557 312.000 C 97.667 312.000,97.146 311.370,96.400 310.600 C 95.654 309.830,94.953 309.200,94.843 309.200 C 94.733 309.200,95.254 309.830,96.000 310.600 M136.400 310.400 C 136.950 310.576,137.760 310.720,138.200 310.720 C 138.833 310.720,138.792 310.654,138.000 310.400 C 137.450 310.224,136.640 310.080,136.200 310.080 C 135.567 310.080,135.608 310.146,136.400 310.400 M143.900 311.095 C 145.055 311.176,146.945 311.176,148.100 311.095 C 149.255 311.014,148.310 310.948,146.000 310.948 C 143.690 310.948,142.745 311.014,143.900 311.095 M99.973 314.095 C 100.728 314.916,101.433 315.501,101.539 315.394 C 101.646 315.287,101.657 315.155,101.565 315.100 C 101.472 315.045,100.767 314.460,99.998 313.801 L 98.600 312.602 99.973 314.095 M297.978 315.100 L 296.600 316.600 298.100 315.222 C 298.925 314.463,299.600 313.788,299.600 313.722 C 299.600 313.416,299.262 313.704,297.978 315.100 M162.175 328.000 C 162.175 333.830,162.231 336.215,162.299 333.300 C 162.367 330.385,162.367 325.615,162.299 322.700 C 162.231 319.785,162.175 322.170,162.175 328.000 M292.400 319.649 C 291.006 320.871,291.005 320.872,292.288 320.019 C 292.996 319.548,293.682 318.991,293.812 318.781 C 294.197 318.157,293.877 318.354,292.400 319.649 M106.400 319.333 C 106.400 319.443,107.120 320.103,108.000 320.800 C 108.880 321.497,109.600 321.977,109.600 321.867 C 109.600 321.757,108.880 321.097,108.000 320.400 C 107.120 319.703,106.400 319.223,106.400 319.333 M286.011 324.220 C 285.247 324.759,284.797 325.199,285.011 325.198 C 285.225 325.197,285.940 324.753,286.600 324.212 C 288.141 322.949,287.805 322.953,286.011 324.220 M118.200 327.807 C 118.640 328.166,119.360 328.635,119.800 328.851 L 120.600 329.244 119.800 328.593 C 119.360 328.234,118.640 327.765,118.200 327.549 L 117.400 327.156 118.200 327.807 M255.800 340.614 C 254.795 341.098,254.763 341.153,255.600 340.951 C 256.150 340.819,256.771 340.550,256.980 340.355 C 257.498 339.871,257.214 339.933,255.800 340.614 M153.905 344.283 C 154.402 344.379,155.122 344.375,155.505 344.275 C 155.887 344.175,155.480 344.096,154.600 344.101 C 153.720 344.105,153.407 344.187,153.905 344.283 M243.900 344.282 C 244.395 344.378,245.205 344.378,245.700 344.282 C 246.195 344.187,245.790 344.109,244.800 344.109 C 243.810 344.109,243.405 344.187,243.900 344.282 " stroke="none" fill="#7c7c7c" fill-rule="evenodd"></path><path id="path4" d="" stroke="none" fill="#847c7c" fill-rule="evenodd"></path><path id="path5" d="M193.700 125.876 C 194.085 125.976,194.715 125.976,195.100 125.876 C 195.485 125.775,195.170 125.693,194.400 125.693 C 193.630 125.693,193.315 125.775,193.700 125.876 M204.100 125.876 C 204.485 125.976,205.115 125.976,205.500 125.876 C 205.885 125.775,205.570 125.693,204.800 125.693 C 204.030 125.693,203.715 125.775,204.100 125.876 M282.934 138.000 C 282.934 139.650,283.005 140.325,283.091 139.500 C 283.178 138.675,283.178 137.325,283.091 136.500 C 283.005 135.675,282.934 136.350,282.934 138.000 M162.146 313.400 C 162.147 315.600,162.214 316.449,162.295 315.287 C 162.376 314.124,162.376 312.324,162.293 311.287 C 162.211 310.249,162.145 311.200,162.146 313.400 M236.942 334.200 C 236.941 336.180,237.008 337.040,237.092 336.112 C 237.176 335.184,237.177 333.564,237.095 332.512 C 237.012 331.460,236.943 332.220,236.942 334.200 " stroke="none" fill="#858484" fill-rule="evenodd"></path><path id="path6" d="M295.293 193.200 C 295.293 193.970,295.375 194.285,295.476 193.900 C 295.576 193.515,295.576 192.885,295.476 192.500 C 295.375 192.115,295.293 192.430,295.293 193.200 M295.293 196.800 C 295.293 197.570,295.375 197.885,295.476 197.500 C 295.576 197.115,295.576 196.485,295.476 196.100 C 295.375 195.715,295.293 196.030,295.293 196.800 M236.971 302.800 C 236.971 307.750,237.028 309.775,237.099 307.300 C 237.169 304.825,237.169 300.775,237.099 298.300 C 237.028 295.825,236.971 297.850,236.971 302.800 M162.548 333.600 C 162.548 335.910,162.614 336.855,162.695 335.700 C 162.776 334.545,162.776 332.655,162.695 331.500 C 162.614 330.345,162.548 331.290,162.548 333.600 " stroke="none" fill="#bcbcbc" fill-rule="evenodd"></path><path id="path7" d="M189.911 53.493 C 190.851 53.578,192.291 53.577,193.111 53.491 C 193.930 53.405,193.160 53.336,191.400 53.337 C 189.640 53.339,188.970 53.409,189.911 53.493 M206.300 53.493 C 207.235 53.577,208.765 53.577,209.700 53.493 C 210.635 53.409,209.870 53.340,208.000 53.340 C 206.130 53.340,205.365 53.409,206.300 53.493 M179.600 54.406 C 179.178 54.682,179.415 54.723,180.400 54.542 C 182.125 54.225,182.451 53.998,181.167 54.006 C 180.635 54.009,179.930 54.189,179.600 54.406 M121.666 115.551 C 121.354 115.749,122.018 115.816,123.266 115.713 C 126.197 115.471,126.595 115.268,124.200 115.238 C 123.100 115.224,121.960 115.365,121.666 115.551 M273.233 115.346 C 273.325 115.426,274.570 115.587,276.000 115.702 C 277.527 115.826,278.270 115.778,277.800 115.585 C 277.026 115.267,272.896 115.051,273.233 115.346 M188.505 126.687 C 189.114 126.779,190.014 126.777,190.505 126.682 C 190.997 126.587,190.500 126.511,189.400 126.514 C 188.300 126.517,187.897 126.595,188.505 126.687 M209.305 126.687 C 209.914 126.779,210.814 126.777,211.305 126.682 C 211.797 126.587,211.300 126.511,210.200 126.514 C 209.100 126.517,208.697 126.595,209.305 126.687 M179.700 127.476 C 180.085 127.576,180.715 127.576,181.100 127.476 C 181.485 127.375,181.170 127.293,180.400 127.293 C 179.630 127.293,179.315 127.375,179.700 127.476 M218.100 127.476 C 218.485 127.576,219.115 127.576,219.500 127.476 C 219.885 127.375,219.570 127.293,218.800 127.293 C 218.030 127.293,217.715 127.375,218.100 127.476 M282.493 133.200 C 282.493 133.970,282.575 134.285,282.676 133.900 C 282.776 133.515,282.776 132.885,282.676 132.500 C 282.575 132.115,282.493 132.430,282.493 133.200 M116.520 137.600 C 116.520 138.810,116.595 139.305,116.687 138.700 C 116.778 138.095,116.778 137.105,116.687 136.500 C 116.595 135.895,116.520 136.390,116.520 137.600 M349.058 183.600 C 349.375 185.325,349.602 185.651,349.594 184.367 C 349.591 183.835,349.411 183.130,349.194 182.800 C 348.918 182.378,348.877 182.615,349.058 183.600 M49.709 186.800 C 49.709 187.790,49.787 188.195,49.882 187.700 C 49.978 187.205,49.978 186.395,49.882 185.900 C 49.787 185.405,49.709 185.810,49.709 186.800 M294.955 195.800 C 294.956 198.660,295.020 199.778,295.097 198.283 C 295.174 196.789,295.174 194.449,295.096 193.083 C 295.018 191.718,294.955 192.940,294.955 195.800 M350.140 194.400 C 350.140 196.270,350.209 197.035,350.293 196.100 C 350.377 195.165,350.377 193.635,350.293 192.700 C 350.209 191.765,350.140 192.530,350.140 194.400 M104.148 195.600 C 104.148 197.910,104.214 198.855,104.295 197.700 C 104.376 196.545,104.376 194.655,104.295 193.500 C 104.214 192.345,104.148 193.290,104.148 195.600 M350.140 210.400 C 350.140 212.270,350.209 213.035,350.293 212.100 C 350.377 211.165,350.377 209.635,350.293 208.700 C 350.209 207.765,350.140 208.530,350.140 210.400 M49.709 218.400 C 49.709 219.390,49.787 219.795,49.882 219.300 C 49.978 218.805,49.978 217.995,49.882 217.500 C 49.787 217.005,49.709 217.410,49.709 218.400 M349.254 220.667 C 349.225 221.144,349.096 221.864,348.970 222.267 C 348.752 222.961,348.764 222.962,349.196 222.288 C 349.447 221.897,349.575 221.177,349.481 220.688 C 349.309 219.801,349.309 219.801,349.254 220.667 M277.578 247.500 L 276.200 249.000 277.700 247.622 C 279.096 246.338,279.384 246.000,279.078 246.000 C 279.012 246.000,278.337 246.675,277.578 247.500 M120.800 246.925 C 120.800 246.994,121.385 247.579,122.100 248.225 L 123.400 249.400 122.225 248.100 C 121.130 246.888,120.800 246.616,120.800 246.925 M94.700 261.082 C 95.195 261.178,96.005 261.178,96.500 261.082 C 96.995 260.987,96.590 260.909,95.600 260.909 C 94.610 260.909,94.205 260.987,94.700 261.082 M163.700 267.076 C 164.085 267.176,164.715 267.176,165.100 267.076 C 165.485 266.975,165.170 266.893,164.400 266.893 C 163.630 266.893,163.315 266.975,163.700 267.076 M226.931 268.236 C 226.773 268.646,227.164 269.319,228.034 270.136 L 229.382 271.400 228.291 270.178 C 227.026 268.761,226.919 268.132,227.900 267.876 C 228.556 267.704,228.555 267.690,227.887 267.646 C 227.496 267.621,227.065 267.886,226.931 268.236 M172.032 268.369 C 172.014 268.681,171.692 269.311,171.315 269.769 C 170.669 270.553,170.683 270.551,171.562 269.742 C 172.075 269.270,172.397 268.640,172.279 268.342 C 172.104 267.903,172.057 267.908,172.032 268.369 M119.254 281.220 C 119.225 281.781,119.065 282.412,118.900 282.623 C 118.735 282.833,118.841 282.802,119.135 282.554 C 119.429 282.306,119.588 281.674,119.489 281.151 C 119.311 280.210,119.308 280.210,119.254 281.220 M143.900 292.689 C 144.615 292.778,145.785 292.778,146.500 292.689 C 147.215 292.601,146.630 292.528,145.200 292.528 C 143.770 292.528,143.185 292.601,143.900 292.689 M145.445 294.328 C 145.333 294.508,145.773 294.577,146.421 294.482 C 147.070 294.387,147.600 294.240,147.600 294.155 C 147.600 293.850,145.643 294.007,145.445 294.328 M150.054 296.820 C 150.025 297.381,149.865 298.012,149.700 298.223 C 149.535 298.433,149.641 298.402,149.935 298.154 C 150.229 297.906,150.388 297.274,150.289 296.751 C 150.111 295.810,150.108 295.810,150.054 296.820 M117.800 300.400 C 118.659 301.280,119.452 302.000,119.562 302.000 C 119.672 302.000,119.059 301.280,118.200 300.400 C 117.341 299.520,116.548 298.800,116.438 298.800 C 116.328 298.800,116.941 299.520,117.800 300.400 M309.978 304.300 L 308.600 305.800 310.100 304.422 C 311.496 303.138,311.784 302.800,311.478 302.800 C 311.412 302.800,310.737 303.475,309.978 304.300 M92.600 308.000 C 93.906 309.320,95.065 310.400,95.175 310.400 C 95.285 310.400,94.306 309.320,93.000 308.000 C 91.694 306.680,90.535 305.600,90.425 305.600 C 90.315 305.600,91.294 306.680,92.600 308.000 M145.305 310.687 C 145.914 310.779,146.814 310.777,147.305 310.682 C 147.797 310.587,147.300 310.511,146.200 310.514 C 145.100 310.517,144.697 310.595,145.305 310.687 M162.570 319.800 C 162.571 324.640,162.629 326.565,162.699 324.078 C 162.769 321.591,162.769 317.631,162.698 315.278 C 162.628 312.925,162.570 314.960,162.570 319.800 M236.579 325.200 C 236.579 332.570,236.633 335.585,236.699 331.900 C 236.765 328.215,236.765 322.185,236.699 318.500 C 236.633 314.815,236.579 317.830,236.579 325.200 " stroke="none" fill="#d0cfcf" fill-rule="evenodd"></path><path id="path8" d="M196.900 53.497 C 198.385 53.574,200.815 53.574,202.300 53.497 C 203.785 53.420,202.570 53.357,199.600 53.357 C 196.630 53.357,195.415 53.420,196.900 53.497 M350.154 202.400 C 350.154 205.150,350.218 206.275,350.296 204.900 C 350.374 203.525,350.374 201.275,350.296 199.900 C 350.218 198.525,350.154 199.650,350.154 202.400 " stroke="none" fill="#c4c4c4" fill-rule="evenodd"></path></g></svg>